<?xml version="1.0" standalone="no"?>
<!DOCTYPE svg PUBLIC "-//W3C//DTD SVG 20010904//EN"
 "http://www.w3.org/TR/2001/REC-SVG-20010904/DTD/svg10.dtd">
<svg version="1.0" xmlns="http://www.w3.org/2000/svg"
 width="1686.000000pt" height="1686.000000pt" viewBox="0 0 1686.000000 1686.000000"
 preserveAspectRatio="xMidYMid meet">
<metadata>
Created by potrace 1.14, written by Peter Selinger 2001-2017
</metadata>
<g transform="translate(0.000000,1686.000000) scale(0.100000,-0.100000)"
fill="#000000" stroke="none">
<path d="M6337 13724 c-1 -1 -68 -5 -150 -8 -81 -4 -155 -9 -165 -11 -9 -1
-51 -6 -92 -10 -41 -5 -82 -9 -90 -10 -38 -4 -127 -18 -145 -21 -11 -3 -36 -7
-55 -10 -19 -3 -42 -7 -50 -9 -8 -3 -32 -7 -54 -11 -47 -7 -53 -8 -141 -29
-38 -9 -77 -18 -85 -20 -112 -24 -378 -109 -565 -182 -114 -44 -452 -203 -515
-242 -8 -5 -62 -38 -120 -72 -423 -252 -786 -564 -1092 -938 -114 -139 -128
-157 -195 -252 -189 -267 -323 -511 -488 -884 -57 -128 -164 -442 -216 -632
-36 -128 -60 -163 -147 -207 -153 -78 -380 -221 -537 -339 -374 -282 -691
-636 -938 -1049 -38 -62 -172 -330 -207 -413 -92 -215 -198 -576 -224 -760 -3
-22 -10 -66 -15 -98 -6 -32 -13 -84 -17 -115 -3 -31 -8 -65 -9 -74 -22 -116
-22 -635 0 -770 2 -13 6 -49 9 -80 4 -47 29 -201 52 -323 3 -16 19 -84 35
-150 105 -421 288 -840 517 -1185 42 -62 202 -282 211 -290 4 -3 43 -48 88
-100 126 -148 328 -340 488 -466 247 -194 532 -362 830 -489 102 -44 429 -157
485 -169 14 -3 80 -18 147 -35 121 -29 161 -46 217 -95 16 -13 47 -29 70 -35
59 -15 10495 -14 10553 1 28 7 59 26 88 55 51 49 88 68 155 78 139 20 591 148
628 177 6 6 12 8 12 5 0 -17 404 175 507 240 29 18 55 33 58 33 16 0 285 197
375 275 180 157 359 343 509 530 40 50 79 98 87 108 26 31 199 289 237 353
123 206 234 439 304 639 45 128 97 337 118 465 14 91 25 175 30 240 4 41 9 86
11 100 5 31 5 412 0 460 -2 19 -7 69 -11 110 -14 167 -54 394 -99 570 -3 8 -9
33 -14 55 -43 176 -144 444 -247 660 -255 534 -641 1002 -1101 1335 -211 153
-511 313 -719 382 -33 10 -69 23 -80 28 -20 9 -48 17 -82 25 -10 2 -43 11 -73
20 -63 17 -176 42 -235 50 -22 4 -47 8 -55 10 -8 2 -42 7 -75 11 -33 3 -69 8
-80 10 -11 2 -91 6 -178 9 -107 3 -169 10 -193 20 -20 8 -78 56 -129 107 -129
129 -335 293 -425 340 -14 7 -52 29 -85 49 -107 63 -263 134 -392 179 -205 72
-435 121 -638 137 -162 13 -486 7 -581 -11 -10 -2 -41 -7 -69 -11 -76 -11 -86
-13 -140 -25 -133 -29 -193 -21 -250 33 -19 18 -53 68 -76 112 -23 44 -71 127
-106 184 -35 57 -63 105 -63 106 0 6 -166 248 -212 310 -171 226 -302 378
-488 564 -167 168 -187 185 -400 364 -119 100 -395 291 -569 394 -472 280
-1014 490 -1541 597 -106 22 -305 54 -370 61 -30 3 -75 8 -100 12 -120 15
-621 37 -633 27z"/>
</g>
</svg>
